<?xml version="1.0"?>
<svg xmlns="http://www.w3.org/2000/svg" xmlns:xlink="http://www.w3.org/1999/xlink" xmlns:svgjs="http://svgjs.com/svgjs" version="1.1" width="512" height="512" x="0" y="0" viewBox="0 0 512 512" style="enable-background:new 0 0 512 512" xml:space="preserve" class=""><g><g xmlns="http://www.w3.org/2000/svg"><circle cx="432" cy="152" fill="#4e166e" r="55" data-original="#00357b" style="" class=""/><path d="m432 207v-110c30.33 0 55 24.67 55 55s-24.67 55-55 55z" fill="#490758" data-original="#001737" style="" class=""/><path d="m512 308.49v108.17c0 16.73-13.66 30.34-30.46 30.34h-105.48c-8.28 0-15-6.72-15-15 0-14.583-8.06-88.471-8.06-123.51 0-37.21 30.46-67.49 67.9-67.49h23.2c37.44 0 67.9 30.28 67.9 67.49z" fill="#4e166e" data-original="#00357b" style="" class=""/><path d="m512 308.49v108.17c0 16.73-13.66 30.34-30.46 30.34h-49.54v-206h12.1c37.44 0 67.9 30.28 67.9 67.49z" fill="#490758" data-original="#001737" style="" class=""/><circle cx="80" cy="152" fill="#4e166e" r="55" data-original="#00357b" style="" class=""/><path d="m80 207v-110c30.33 0 55 24.67 55 55s-24.67 55-55 55z" fill="#490758" data-original="#001737" style="" class=""/><path d="m159 308.49c0 36.163-8.06 108.265-8.06 123.51 0 8.28-6.72 15-15 15h-106.53c-16.22 0-29.41-13.14-29.41-29.3v-109.21c0-37.21 30.46-67.49 67.9-67.49h23.2c37.44 0 67.9 30.28 67.9 67.49z" fill="#4e166e" data-original="#00357b" style="" class=""/><path d="m159 308.49c0 36.163-8.06 108.265-8.06 123.51 0 8.28-6.72 15-15 15h-55.94v-206h11.1c37.44 0 67.9 30.28 67.9 67.49z" fill="#490758" data-original="#001737" style="" class=""/><circle cx="256" cy="120" fill="#7a0d92" r="87" data-original="#58b354" style="" class=""/><path d="m256 207v-174c47.97 0 87 39.03 87 87s-39.03 87-87 87z" fill="#510476" data-original="#00a963" style="" class=""/><path d="m391 362.02v81.96c0 19.31-15.71 35.02-35.02 35.02h-199.96c-19.31 0-35.02-15.71-35.02-35.02v-81.96c0-66.73 54.29-121.02 121.02-121.02h27.96c66.73 0 121.02 54.29 121.02 121.02z" fill="#7a0d92" data-original="#58b354" style="" class=""/><path d="m391 362.02v81.96c0 19.31-15.71 35.02-35.02 35.02h-99.98v-238h13.98c66.73 0 121.02 54.29 121.02 121.02z" fill="#510476" data-original="#00a963" style="" class=""/></g></g></svg>
