<?xml version="1.0"?>
<svg xmlns="http://www.w3.org/2000/svg" xmlns:xlink="http://www.w3.org/1999/xlink" xmlns:svgjs="http://svgjs.com/svgjs" version="1.1" width="512" height="512" x="0" y="0" viewBox="0 0 512 512" style="enable-background:new 0 0 512 512" xml:space="preserve" class=""><g>
<path xmlns="http://www.w3.org/2000/svg" style="" d="M0,306.542V147C0,89.103,47.103,42,105,42h280V0.787L511.213,127L385,253.213V212H127.111  c-40.127,0-77.372,19.933-99.63,53.32L0,306.542z" fill="#552870" data-original="#7d8aff" class=""/>
<path xmlns="http://www.w3.org/2000/svg" style="" d="M127,511.213L0.787,385L127,258.787V300h257.889c40.127,0,77.372-19.933,99.63-53.32L512,205.458V365  c0,57.897-47.103,105-105,105H127V511.213z" fill="#4b055a" data-original="#ffdc40" class=""/>
<path xmlns="http://www.w3.org/2000/svg" style="" d="M484.519,246.68c-22.258,33.387-59.503,53.32-99.63,53.32H256v170h151c57.897,0,105-47.103,105-105  V205.458L484.519,246.68z" fill="#552870" data-original="#ffab15" class=""/>
<polygon xmlns="http://www.w3.org/2000/svg" style="" points="511.213,127 385,0.787 385,42 256,42 256,212 385,212 385,253.213 " fill="#520a62" data-original="#6e76e5" class=""/>
<g xmlns="http://www.w3.org/2000/svg">
</g>
<g xmlns="http://www.w3.org/2000/svg">
</g>
<g xmlns="http://www.w3.org/2000/svg">
</g>
<g xmlns="http://www.w3.org/2000/svg">
</g>
<g xmlns="http://www.w3.org/2000/svg">
</g>
<g xmlns="http://www.w3.org/2000/svg">
</g>
<g xmlns="http://www.w3.org/2000/svg">
</g>
<g xmlns="http://www.w3.org/2000/svg">
</g>
<g xmlns="http://www.w3.org/2000/svg">
</g>
<g xmlns="http://www.w3.org/2000/svg">
</g>
<g xmlns="http://www.w3.org/2000/svg">
</g>
<g xmlns="http://www.w3.org/2000/svg">
</g>
<g xmlns="http://www.w3.org/2000/svg">
</g>
<g xmlns="http://www.w3.org/2000/svg">
</g>
<g xmlns="http://www.w3.org/2000/svg">
</g>
</g></svg>
